<svg width="160" height="45" viewBox="0 0 160 45" fill="none" xmlns="http://www.w3.org/2000/svg">
<g clip-path="url(#clip0_718_25)">
<path opacity="0.4" d="M0.246704 22.3202C0.246704 21.3298 0.409969 20.4046 0.732872 19.5447C1.05577 18.6849 1.50203 17.9375 2.06439 17.2989C2.62675 16.6604 3.2907 16.1524 4.0526 15.7824C4.8145 15.4087 5.63446 15.2236 6.51246 15.2236C7.37233 15.2236 8.16326 15.405 8.88888 15.7679C9.6145 16.1307 10.2422 16.6168 10.7791 17.2264V15.2817H14.3565V29.3044H10.7755V27.3597C10.2422 27.991 9.61088 28.4808 8.88525 28.8327C8.15963 29.1846 7.3687 29.3624 6.50884 29.3624C5.63083 29.3624 4.81088 29.1774 4.04897 28.8037C3.28707 28.43 2.62312 27.9293 2.06076 27.3016C1.4984 26.6703 1.05577 25.9266 0.729244 25.0703C0.406341 24.2105 0.246704 23.2926 0.246704 22.3202ZM3.82403 22.3202C3.82403 22.7955 3.9111 23.2454 4.08162 23.6663C4.25215 24.0871 4.49523 24.4536 4.81088 24.7692C5.12652 25.0849 5.48933 25.3316 5.89931 25.513C6.30929 25.6944 6.7628 25.7851 7.25986 25.7851C7.73514 25.7851 8.18503 25.6944 8.60589 25.513C9.02675 25.3316 9.39319 25.0849 9.70884 24.7692C10.0245 24.4536 10.2712 24.0871 10.4526 23.6663C10.634 23.2454 10.7247 22.7991 10.7247 22.3202C10.7247 21.8449 10.634 21.3914 10.4526 20.9597C10.2712 20.5316 10.0245 20.1579 9.70884 19.8422C9.39319 19.5266 9.02675 19.2799 8.60589 19.0985C8.18503 18.9171 7.73877 18.8264 7.25986 18.8264C6.7628 18.8264 6.30929 18.9171 5.89931 19.0985C5.48933 19.2799 5.12652 19.5266 4.81088 19.8422C4.49523 20.1579 4.25215 20.5279 4.08162 20.9597C3.9111 21.3914 3.82403 21.8449 3.82403 22.3202Z" fill="#F5F5F5"/>
<path opacity="0.4" d="M15.9274 15.2233H16.8417V15.1653C16.8417 14.5159 16.9288 13.8918 17.0993 13.2896C17.2698 12.6873 17.5528 12.1685 17.9447 11.7295C18.3365 11.2905 18.8553 10.9676 19.5048 10.7571C20.1542 10.5467 20.956 10.4995 21.9102 10.6156V13.2787C21.4349 13.2424 21.0612 13.3512 20.7927 13.6088C20.5243 13.8664 20.3936 14.2256 20.3936 14.6828V15.227H21.9973V18.173H20.39V29.3041H16.8417V18.1694H15.9274V15.2233Z" fill="#F5F5F5"/>
<path opacity="0.4" d="M27.015 15.2817V29.3044H23.4667V15.2817H27.015Z" fill="#F5F5F5"/>
<path d="M23.1256 11.3307C23.1256 10.7212 23.336 10.206 23.7605 9.7851C24.185 9.36424 24.6821 9.15381 25.2589 9.15381C25.8721 9.15381 26.3873 9.36424 26.8009 9.7851C27.2145 10.206 27.4213 10.7212 27.4213 11.3307C27.4213 11.9039 27.2145 12.401 26.8009 12.8182C26.3873 13.2391 25.8757 13.4495 25.2589 13.4495C24.6821 13.4495 24.185 13.2391 23.7605 12.8182C23.336 12.401 23.1256 11.9039 23.1256 11.3307Z" fill="white"/>
<path opacity="0.4" d="M32.8599 11.3013V29.3004H29.3116V11.3013H32.8599Z" fill="#F5F5F5"/>
<path opacity="0.4" d="M38.4979 15.2817V29.3044H34.9496V15.2817H38.4979Z" fill="#F5F5F5"/>
<path d="M34.605 11.3307C34.605 10.7212 34.8154 10.206 35.2399 9.7851C35.6644 9.36424 36.1614 9.15381 36.7383 9.15381C37.3515 9.15381 37.8667 9.36424 38.2803 9.7851C38.6939 10.206 38.9007 10.7212 38.9007 11.3307C38.9007 11.9039 38.6939 12.401 38.2803 12.8182C37.8667 13.2391 37.3551 13.4495 36.7383 13.4495C36.1614 13.4495 35.6644 13.2391 35.2399 12.8182C34.8154 12.401 34.605 11.9039 34.605 11.3307Z" fill="white"/>
<path opacity="0.4" d="M40.127 22.3202C40.127 21.3298 40.2902 20.4046 40.6131 19.5447C40.936 18.6849 41.3823 17.9375 41.9446 17.2989C42.507 16.6604 43.1709 16.1524 43.9328 15.7824C44.6948 15.4087 45.5147 15.2236 46.3927 15.2236C47.2526 15.2236 48.0435 15.405 48.7691 15.7679C49.4948 16.1307 50.1224 16.6168 50.6594 17.2264V15.2817H54.2367V29.3044H50.6594V27.3597C50.126 27.991 49.4948 28.4808 48.7691 28.8327C48.0435 29.1846 47.2526 29.3624 46.3927 29.3624C45.5147 29.3624 44.6948 29.1774 43.9328 28.8037C43.1709 28.43 42.507 27.9293 41.9446 27.3016C41.3823 26.6703 40.9397 25.9266 40.6131 25.0703C40.2902 24.2105 40.127 23.2926 40.127 22.3202ZM43.7043 22.3202C43.7043 22.7955 43.7914 23.2454 43.9619 23.6663C44.1324 24.0871 44.3755 24.4536 44.6911 24.7692C45.0068 25.0849 45.3696 25.3316 45.7796 25.513C46.1895 25.6944 46.6431 25.7851 47.1401 25.7851C47.6154 25.7851 48.0653 25.6944 48.4861 25.513C48.907 25.3316 49.2734 25.0849 49.5891 24.7692C49.9047 24.4536 50.1514 24.0871 50.3328 23.6663C50.5143 23.2454 50.605 22.7991 50.605 22.3202C50.605 21.8449 50.5143 21.3914 50.3328 20.9597C50.1514 20.5279 49.9047 20.1579 49.5891 19.8422C49.2734 19.5266 48.907 19.2799 48.4861 19.0985C48.0653 18.9171 47.619 18.8264 47.1401 18.8264C46.6431 18.8264 46.1895 18.9171 45.7796 19.0985C45.3696 19.2799 45.0068 19.5266 44.6911 19.8422C44.3755 20.1579 44.1324 20.5279 43.9619 20.9597C43.7914 21.3914 43.7043 21.8449 43.7043 22.3202Z" fill="#F5F5F5"/>
<path opacity="0.4" d="M55.5029 22.3199C55.5029 21.3294 55.6662 20.4042 55.9891 19.5444C56.312 18.6845 56.7583 17.9371 57.3206 17.2985C57.883 16.66 58.5469 16.1521 59.3088 15.782C60.0707 15.4083 60.8907 15.2233 61.7687 15.2233C62.6286 15.2233 63.4086 15.3938 64.1161 15.7385C64.8236 16.0831 65.4403 16.5584 65.9773 17.1679V11.3013H69.5546V29.3004H65.9773V27.4391C65.444 28.0487 64.8236 28.5239 64.1161 28.8541C63.4086 29.1879 62.6286 29.3548 61.7687 29.3548C60.8907 29.3548 60.0707 29.1698 59.3088 28.7961C58.5469 28.4224 57.883 27.9217 57.3206 27.294C56.7583 26.6627 56.3156 25.919 55.9891 25.0627C55.6626 24.2101 55.5029 23.2922 55.5029 22.3199ZM59.0803 22.3199C59.0803 22.7951 59.1673 23.245 59.3379 23.6659C59.5084 24.0868 59.7515 24.4532 60.0671 24.7688C60.3827 25.0845 60.7456 25.3312 61.1555 25.5126C61.5655 25.694 62.019 25.7847 62.5161 25.7847C62.9551 25.7847 63.3759 25.7085 63.775 25.5561C64.1741 25.4038 64.5297 25.1897 64.8344 24.914C65.1392 24.6382 65.3932 24.319 65.5927 23.9561C65.7923 23.5933 65.9229 23.1942 65.9773 22.7552V21.8954C65.9193 21.4745 65.7923 21.0754 65.5927 20.6945C65.3932 20.3135 65.1392 19.9906 64.8344 19.7221C64.5297 19.4536 64.1778 19.2396 63.775 19.08C63.3759 18.9167 62.9551 18.8369 62.5161 18.8369C62.019 18.8369 61.5655 18.9276 61.1555 19.109C60.7456 19.2904 60.3827 19.5371 60.0671 19.8527C59.7515 20.1684 59.5084 20.5385 59.3379 20.9702C59.1637 21.3911 59.0803 21.8446 59.0803 22.3199Z" fill="#F5F5F5"/>
<path opacity="0.4" d="M84.7818 22.3202C84.7818 23.2926 84.5968 24.2105 84.2231 25.0667C83.8494 25.9266 83.3487 26.6703 82.721 27.298C82.0934 27.9293 81.346 28.43 80.4897 28.8C79.6299 29.1737 78.7156 29.3588 77.7433 29.3588C76.7528 29.3588 75.8276 29.1737 74.9678 28.8C74.1079 28.4264 73.3641 27.9257 72.7365 27.298C72.1052 26.6667 71.6117 25.923 71.2489 25.0667C70.8861 24.2069 70.7047 23.2926 70.7047 22.3202C70.7047 21.3298 70.8861 20.4046 71.2489 19.5447C71.6117 18.6849 72.1088 17.9375 72.7365 17.2989C73.3677 16.6604 74.1115 16.1524 74.9678 15.7824C75.8276 15.4087 76.7528 15.2236 77.7433 15.2236C78.7156 15.2236 79.6335 15.4087 80.4897 15.7824C81.3496 16.1561 82.0934 16.6604 82.721 17.2989C83.3523 17.9375 83.853 18.6885 84.2231 19.5447C84.5968 20.4046 84.7818 21.3298 84.7818 22.3202ZM81.1791 22.3202C81.1791 21.8449 81.0884 21.3914 80.907 20.9597C80.7256 20.5316 80.4789 20.1579 80.1632 19.8422C79.8476 19.5266 79.4848 19.2799 79.0748 19.0985C78.6648 18.9171 78.2222 18.8264 77.7433 18.8264C77.268 18.8264 76.8181 18.9171 76.3972 19.0985C75.9764 19.2799 75.6099 19.5266 75.2943 19.8422C74.9786 20.1579 74.7319 20.5279 74.5505 20.9597C74.3691 21.3878 74.2784 21.8413 74.2784 22.3202C74.2784 22.7955 74.3691 23.2454 74.5505 23.6663C74.7319 24.0871 74.9786 24.4536 75.2943 24.7692C75.6099 25.0849 75.9764 25.3316 76.3972 25.513C76.8181 25.6944 77.2643 25.7851 77.7433 25.7851C78.2185 25.7851 78.6648 25.6944 79.0748 25.513C79.4848 25.3316 79.8476 25.0849 80.1632 24.7692C80.4789 24.4536 80.7256 24.0871 80.907 23.6663C81.0884 23.2454 81.1791 22.7991 81.1791 22.3202Z" fill="#F5F5F5"/>
<path d="M159.978 20.8798C159.978 20.8798 159.967 20.5823 159.956 20.3863C159.946 20.1977 159.898 19.8421 159.84 19.5011C159.274 16.1886 157.707 13.17 155.316 10.7682C152.258 7.69881 148.434 5.98996 144.102 5.96094C143.956 5.96094 143.84 6.07704 143.84 6.22216V6.28021C143.858 9.27704 147.091 10.0172 147.244 10.0498C147.247 10.0498 147.251 10.0535 147.258 10.0535C149.297 10.5868 150.962 11.668 152.74 13.453C154.888 15.6117 156.024 18.1151 156.328 20.8979L156.336 20.9596L156.394 20.985C156.891 21.2099 157.493 21.2716 158.135 21.2716C158.157 21.2716 158.182 21.2716 158.204 21.2716C158.839 21.2643 159.445 21.199 159.917 20.985L159.985 20.9559L159.978 20.8798Z" fill="white"/>
<path d="M144.16 12.0889C144.054 12.0925 143.975 12.1796 143.978 12.2812L143.989 12.6113C143.989 12.6186 143.989 12.6222 143.989 12.6295C144.225 14.7664 146.405 16.0326 146.5 16.0871L146.511 16.0907C148.521 17.0449 149.732 18.9424 149.87 21.3297H149.881C149.881 21.3297 150.922 21.5256 151.873 21.5256C152.824 21.5256 153.756 21.3261 153.756 21.3261V21.2825C153.669 18.8154 152.693 16.5406 150.984 14.8426C149.199 13.0721 146.775 12.0925 144.16 12.0889Z" fill="white"/>
<path d="M144.377 18.1479H144.21C144.156 18.1479 144.116 18.1915 144.116 18.2423V20.5171V21.2536C144.116 21.2972 144.145 21.3371 144.189 21.3479C144.381 21.3987 144.951 21.5257 145.712 21.5257C146.474 21.5257 147.044 21.3987 147.236 21.3479C147.28 21.3371 147.309 21.3008 147.309 21.2536V21.065C147.302 19.4577 145.992 18.1479 144.377 18.1479Z" fill="white"/>
<path d="M99.9184 15.3174H96.4572C96.3374 15.3174 96.2395 15.4154 96.2395 15.5351V16.8811C95.7932 16.453 95.2853 16.0938 94.7229 15.8144C93.9937 15.4516 93.1882 15.2666 92.3284 15.2666C91.4504 15.2666 90.6159 15.4553 89.854 15.829C89.0921 16.199 88.4245 16.7106 87.8622 17.3491C87.3034 17.9841 86.8572 18.7387 86.5343 19.5877C86.2114 20.4403 86.0481 21.3691 86.0481 22.3487C86.0481 23.3138 86.2114 24.2317 86.5343 25.0843C86.8572 25.9369 87.3034 26.6843 87.8622 27.312C88.4209 27.9396 89.0921 28.4439 89.854 28.8176C90.6195 29.1913 91.4504 29.38 92.3284 29.38C93.1882 29.38 93.9937 29.1986 94.7193 28.8466C95.278 28.5745 95.7896 28.2154 96.2359 27.7764V29.1115C96.2359 29.2312 96.3338 29.3292 96.4535 29.3292H99.9148C100.034 29.3292 100.132 29.2312 100.132 29.1115V15.5423C100.132 15.4117 100.034 15.3174 99.9184 15.3174ZM93.0504 25.4798C92.6005 25.4798 92.1905 25.3963 91.8241 25.2367C91.454 25.0734 91.1202 24.8448 90.8372 24.5618C90.5542 24.2788 90.3329 23.9451 90.1769 23.5677C90.0209 23.1904 89.9447 22.7804 89.9447 22.3487C89.9447 21.9169 90.0245 21.5033 90.1769 21.1151C90.3329 20.7305 90.5542 20.3895 90.8336 20.1065C91.1166 19.8235 91.4504 19.5949 91.8204 19.4317C92.1869 19.2684 92.6005 19.1886 93.0467 19.1886C93.4749 19.1886 93.8848 19.272 94.2622 19.4353C94.6431 19.5986 94.9769 19.8271 95.2599 20.1101C95.5429 20.3931 95.7678 20.7342 95.9347 21.1224C96.098 21.5106 96.1814 21.9242 96.1814 22.3523C96.1814 22.7804 96.098 23.1904 95.9347 23.5677C95.7715 23.9487 95.5429 24.2825 95.2599 24.5655C94.9769 24.8485 94.6395 25.077 94.2622 25.2403C93.8885 25.3963 93.4821 25.4798 93.0504 25.4798Z" fill="white"/>
<path d="M118.596 16.7942C118.208 16.3226 117.74 15.9416 117.196 15.6732C116.651 15.4011 116.031 15.2632 115.356 15.2632C114.547 15.2632 113.84 15.4373 113.255 15.7784C112.766 16.065 112.337 16.4568 111.986 16.9394C111.663 16.4713 111.264 16.0868 110.792 15.7929C110.226 15.441 109.526 15.2632 108.713 15.2632C107.712 15.2632 106.845 15.5861 106.133 16.2246V15.5317C106.133 15.4119 106.035 15.314 105.916 15.314H102.455C102.335 15.314 102.237 15.4119 102.237 15.5317V29.1008C102.237 29.2206 102.335 29.3185 102.455 29.3185H105.916C106.035 29.3185 106.133 29.2206 106.133 29.1008V21.0464C106.152 20.3425 106.268 19.8528 106.485 19.5843C106.707 19.3122 106.95 19.1416 107.222 19.0582C107.233 19.0546 107.247 19.0509 107.258 19.0437C107.44 18.953 107.628 18.924 107.835 18.953C108.053 18.9856 108.256 19.0618 108.441 19.1816C108.622 19.2977 108.767 19.4682 108.88 19.6822C108.992 19.8999 109.05 20.1503 109.05 20.426V29.0936C109.05 29.2133 109.148 29.3113 109.268 29.3113H112.729C112.849 29.3113 112.947 29.2133 112.947 29.0936V21.0754C112.983 20.3643 113.103 19.8636 113.306 19.5879C113.509 19.3122 113.742 19.138 114.01 19.0582C114.017 19.0582 114.021 19.0546 114.028 19.0509C114.235 18.9711 114.445 18.9421 114.659 18.9675C114.877 18.9929 115.073 19.0618 115.258 19.1816C115.44 19.3013 115.596 19.4682 115.715 19.675C115.835 19.8818 115.893 20.1321 115.893 20.426V29.0936C115.893 29.2133 115.991 29.3113 116.111 29.3113H119.572C119.692 29.3113 119.79 29.2133 119.79 29.0936V20.4333C119.79 19.7294 119.688 19.0618 119.489 18.4414C119.278 17.821 118.981 17.2659 118.596 16.7942Z" fill="white"/>
<path d="M134.15 15.4081C134.11 15.35 134.044 15.3174 133.972 15.3174H130.289C130.199 15.3174 130.115 15.3754 130.086 15.4625L127.303 23.5532L124.626 15.4661C124.597 15.3791 124.513 15.3174 124.423 15.3174H120.711C120.642 15.3174 120.577 15.35 120.537 15.4081C120.497 15.4661 120.486 15.5387 120.508 15.604L125.159 29.2276C125.188 29.3147 125.272 29.3727 125.362 29.3727H129.074C129.165 29.3727 129.248 29.3147 129.277 29.2312L134.179 15.6076C134.2 15.5387 134.19 15.4661 134.15 15.4081Z" fill="white"/>
<path d="M113.371 2.3872C113.371 2.3872 133.932 9.65069 135.797 10.311C137.948 11.0584 139.668 9.82847 139.668 9.82847L112.301 0.14502L107.632 13.3405C107.632 13.3405 109.355 13.3804 110.233 11.2507C111.111 9.12098 113.371 2.3872 113.371 2.3872Z" fill="white"/>
<path d="M135.869 30.8682L131.759 42.4854L103.303 32.4174L103.702 31.2927H101.841L101.065 33.4877L132.829 44.7239L137.357 31.9203L135.869 30.8682Z" fill="white"/>
<path d="M151.79 22.2947C150.785 22.2947 149.856 22.175 149.856 22.175L149.841 22.3092C149.816 22.574 149.772 22.8316 149.718 23.0747C149.689 23.2017 149.66 23.3251 149.624 23.4375L149.613 23.4702C149.58 23.5863 149.54 23.706 149.489 23.8439C149.482 23.8693 149.471 23.8947 149.464 23.9164C149.417 24.0398 149.366 24.1595 149.315 24.272L149.286 24.3301C149.228 24.4534 149.174 24.5623 149.112 24.6711L149.097 24.6965C149.039 24.8017 148.971 24.9106 148.891 25.0339L148.883 25.0484C148.873 25.0666 148.862 25.0811 148.851 25.0992C148.775 25.2081 148.698 25.3169 148.619 25.4149L148.575 25.4693C148.488 25.5781 148.405 25.6725 148.321 25.7632L148.303 25.7813C148.219 25.8684 148.122 25.9627 148.009 26.0607L147.947 26.1151C147.846 26.2022 147.741 26.2856 147.635 26.3654L147.574 26.409C147.45 26.496 147.338 26.5686 147.229 26.6339L147.211 26.6448C147.098 26.7101 146.975 26.7754 146.83 26.848L146.808 26.8589C146.79 26.8661 146.772 26.877 146.754 26.8843C146.623 26.9459 146.489 27.0003 146.351 27.0511C146.336 27.0584 146.318 27.062 146.304 27.0693L146.275 27.0802C146.115 27.1346 145.97 27.1818 145.832 27.218L145.821 27.2217C145.683 27.2579 145.527 27.2906 145.342 27.3233L145.313 27.3269C145.292 27.3305 145.27 27.3341 145.252 27.3378C145.092 27.3632 144.925 27.3849 144.758 27.3994C144.736 27.3994 144.718 27.4031 144.697 27.4031L144.66 27.4067C144.461 27.4212 144.279 27.4285 144.112 27.4285C140.161 27.4285 138.362 24.4462 138.362 21.6779C138.362 19.6171 139.407 16.9577 142.335 16.1559C142.335 16.1559 142.335 16.1523 142.335 16.1486C143.082 15.8874 143.619 15.1763 143.619 14.3382C143.619 13.2788 142.759 12.4189 141.7 12.4189C141.522 12.4189 141.351 12.4443 141.188 12.4915C141.188 12.4915 141.188 12.4879 141.185 12.4879C141.166 12.4915 141.148 12.4988 141.13 12.506C139.051 13.1155 137.683 14.3019 136.9 15.1945C135.383 16.9214 134.512 19.2833 134.512 21.6743C134.512 24.0652 135.383 26.4271 136.9 28.1541C138.141 29.5654 140.397 31.2525 144.112 31.2525C147.828 31.2525 150.088 29.5691 151.325 28.1541C151.434 28.0307 151.543 27.8965 151.67 27.7332C151.695 27.7006 151.721 27.6679 151.746 27.6353L151.764 27.6135C151.851 27.4938 151.938 27.374 152.022 27.2543L152.047 27.218C152.062 27.1999 152.073 27.1781 152.087 27.16C152.185 27.0112 152.279 26.8552 152.374 26.6992C152.388 26.6738 152.399 26.6521 152.414 26.6267L152.435 26.5867C152.504 26.4598 152.577 26.3328 152.642 26.1985L152.66 26.1586C152.675 26.126 152.693 26.0969 152.707 26.0643C152.798 25.8793 152.871 25.716 152.936 25.5636L152.951 25.5237C153.012 25.375 153.07 25.2153 153.132 25.0448C153.15 24.9976 153.165 24.9468 153.183 24.896C153.234 24.7509 153.277 24.6022 153.321 24.4534L153.331 24.4135C153.339 24.3954 153.342 24.3736 153.35 24.3555C153.397 24.1849 153.44 24.0035 153.48 23.8185L153.484 23.804C153.488 23.7931 153.488 23.7858 153.491 23.775C153.495 23.7641 153.495 23.7532 153.498 23.735C153.593 23.2852 153.658 22.8171 153.691 22.3418L153.702 22.1822C153.709 22.175 152.795 22.2947 151.79 22.2947Z" fill="white"/>
</g>
<defs>
<clipPath id="clip0_718_25">
<rect width="160" height="44.9887" fill="white"/>
</clipPath>
</defs>
</svg>
